<svg id="Layer_1" data-name="Layer 1" xmlns="http://www.w3.org/2000/svg" xmlns:xlink="http://www.w3.org/1999/xlink" viewBox="0 0 231.36 106.97"><defs><style>.cls-1{fill:#fff;}.cls-2{fill:#066db5;}.cls-3{mask:url(#mask);}</style><mask id="mask" x="18.36" y="47.06" width="23.52" height="20.56" maskUnits="userSpaceOnUse"><g id="mask-2"><polygon id="path-1" class="cls-1" points="18.36 47.05 18.36 67.62 41.88 67.62 41.88 47.05 18.36 47.05"/></g></mask></defs><title>Payment Methods2</title><path id="Combined-Shape" class="cls-2" d="M189.92,37.8a22.76,22.76,0,0,1,9.9,2.26c.47.21,1,.46,1.42.72l-2.06,1.83-3.1-3.19-5.34,4.68-3.14-3.36-9.81,8.72,6.28,6.85-2.45,2.12,6.2,6.85-2.46,2.13,8.87,9.74,5.25-4.76,4.56,5.1a24.24,24.24,0,0,1-3,2A22.68,22.68,0,0,1,190,82.34a22.27,22.27,0,1,1-.05-44.54Zm-4.13,20.89,5.38-4.77L196,59.24,190.61,64Zm3.83,9.19L195,63.07l4.86,5.32-5.38,4.76ZM182,49.63l5.38-4.77,4.82,5.32L186.78,55Zm9.86-2.55,4-3.58,3.62,4-4,3.61ZM199,63.45l4-3.57,3.62,4-4,3.57Zm3.53,8,4-3.57,3.62,4-4,3.61Zm1.64-18.37,2.66-2.39,2.41,2.64-2.66,2.38Zm-3.45-7.87,2.67-2.43,2.41,2.68-2.67,2.38ZM207.52,61l2.67-2.39,2.46,2.64-2.71,2.38Zm-12-5.92,4-3.57,3.62,4-4,3.57Z"/><g id="Group-27"><g class="cls-3"><polygon id="Fill-25" class="cls-2" points="30.17 53.14 29.96 53.14 26.15 67.62 23.04 67.62 18.36 47.05 21.59 47.05 24.83 62.4 25.03 62.4 28.78 47.05 31.35 47.05 35.36 62.4 35.56 62.4 38.51 47.05 41.88 47.05 37.21 67.62 34.09 67.62 30.17 53.14"/></g></g><path id="Fill-28" class="cls-2" d="M46,58.86h6.61c-.14-3-1.62-4.26-3.17-4.26C47.66,54.6,46.3,56,46,58.86m8.92,5.46v2.2a10.08,10.08,0,0,1-5.11,1.34c-4.85,0-6.84-3-6.84-7.6,0-4.41,2.22-7.6,6.55-7.6,3.61,0,5.83,2.35,5.83,7.08v1.07h-9.4c0,3.48,1.41,5,4.38,5a8.86,8.86,0,0,0,4.59-1.51"/><path id="Fill-30" class="cls-2" d="M62.05,65.53A6.58,6.58,0,0,0,64.7,66c2.14,0,3.75-1.34,3.75-6,0-3.68-1.33-4.87-3.26-4.87a6,6,0,0,0-3.14,1Zm0-11.63A8.65,8.65,0,0,1,66,52.83c3.58,0,5.51,2.49,5.51,7.13,0,5.43-2.59,8.07-6.78,8.07a13.36,13.36,0,0,1-5.63-1.43V46.36l3-.72Z"/><polygon id="Fill-32" class="cls-2" points="84.47 63.26 84.62 63.26 90.79 47.04 94.37 47.04 94.37 67.61 91.25 67.61 91.25 52.7 91 52.7 85.11 67.61 83.26 67.61 77.37 53.05 77.11 53.05 77.11 67.61 74.52 67.61 74.52 47.04 78.01 47.04 84.47 63.26"/><path id="Fill-34" class="cls-2" d="M107.11,60.26c0-3.92-1.59-5.57-3.55-5.57S100,56.34,100,60.26s1.5,5.57,3.55,5.57,3.55-1.6,3.55-5.57M97,60.26c0-5.08,2.77-7.6,6.58-7.6s6.58,2.52,6.58,7.6-2.63,7.6-6.58,7.6S97,65.22,97,60.26"/><path id="Fill-36" class="cls-2" d="M112.42,54.81a14.64,14.64,0,0,1,7.36-2.15c3.46,0,4.76,1.36,4.76,4.35v10.5h-3V57.68c0-2.29-1.12-2.7-2.6-2.7a8,8,0,0,0-3.52,1V67.51h-3V54.81Z"/><path id="Fill-38" class="cls-2" d="M130.89,58.86h6.61c-.14-3-1.62-4.26-3.17-4.26-1.77,0-3.12,1.37-3.44,4.26m8.92,5.46v2.2a10.08,10.08,0,0,1-5.11,1.34c-4.85,0-6.84-3-6.84-7.6,0-4.41,2.22-7.6,6.55-7.6,3.61,0,5.83,2.35,5.83,7.08v1.07h-9.41c0,3.48,1.42,5,4.39,5a8.86,8.86,0,0,0,4.59-1.51"/><path id="Fill-40" class="cls-2" d="M152.23,52.66h3.09l-5.22,14.5c-1.45,4-3.21,6.09-6.53,6.09V70.87c2,0,3.18-1.56,3.87-3.71l-5.54-14.5h3.18l3.69,10.67h.17Z"/></svg>